<?xml version="1.0" standalone="no"?>
<!DOCTYPE svg PUBLIC "-//W3C//DTD SVG 20010904//EN"
 "http://www.w3.org/TR/2001/REC-SVG-20010904/DTD/svg10.dtd">
<svg version="1.0" xmlns="http://www.w3.org/2000/svg"
 width="3395.000000pt" height="3395.000000pt" viewBox="0 0 3395.000000 3395.000000"
 preserveAspectRatio="xMidYMid meet">
<metadata>
Created by potrace 1.14, written by Peter Selinger 2001-2017
</metadata>
<g transform="translate(0.000000,3395.000000) scale(0.100000,-0.100000)"
fill="#000000" stroke="none">
<path d="M28357 33944 c-1 -1 -67 -4 -147 -8 -80 -3 -156 -8 -170 -10 -14 -3
-50 -7 -80 -10 -174 -16 -477 -86 -665 -153 -205 -72 -445 -183 -639 -295 -68
-38 -215 -135 -226 -148 -3 -3 -25 -21 -50 -40 -25 -19 -47 -37 -50 -40 -3 -3
-36 -32 -75 -65 -146 -124 -364 -342 -500 -500 -27 -32 -54 -63 -60 -69 -5 -6
-32 -38 -58 -71 -26 -33 -54 -68 -62 -77 -38 -46 -131 -188 -203 -308 -91
-152 -137 -209 -155 -191 -6 6 -10 46 -10 98 3 226 133 627 339 1050 82 166
216 408 235 423 4 3 21 30 40 60 18 30 36 57 39 60 8 8 40 58 40 65 0 5 -53
-22 -280 -143 -281 -149 -725 -444 -924 -612 -16 -14 -63 -54 -105 -90 -92
-78 -379 -364 -441 -439 -25 -29 -49 -59 -55 -65 -5 -6 -35 -42 -65 -81 -309
-391 -534 -821 -695 -1330 -91 -286 -184 -567 -190 -573 -12 -12 -17 11 -16
77 0 38 3 85 5 103 3 18 10 80 16 138 19 176 69 455 116 645 24 99 42 186 39
194 -6 16 -29 -7 -113 -119 -32 -41 -62 -81 -69 -88 -26 -28 -226 -335 -300
-462 -71 -123 -199 -372 -252 -493 -70 -157 -127 -320 -206 -582 -25 -82 -47
-154 -49 -160 -2 -5 -7 -20 -11 -32 -7 -22 -8 -22 -89 19 -44 22 -142 73 -216
113 -130 70 -366 192 -375 195 -3 0 -44 19 -92 41 -138 63 -333 148 -358 155
-5 1 -59 23 -120 47 -110 45 -271 107 -290 111 -5 2 -17 6 -25 9 -75 31 -742
239 -810 252 -8 2 -35 8 -60 15 -25 7 -52 14 -60 15 -8 2 -15 4 -15 5 0 1 -8
4 -50 14 -11 2 -87 21 -170 41 -167 40 -318 73 -500 109 -30 6 -185 35 -220
41 -198 34 -221 38 -455 70 -164 22 -199 27 -340 40 -231 22 -500 30 -1045 30
-549 0 -840 -8 -1140 -30 -44 -3 -111 -8 -150 -11 -38 -3 -84 -7 -101 -9 -17
-2 -57 -7 -90 -10 -32 -4 -70 -8 -84 -11 -14 -3 -41 -7 -60 -9 -61 -7 -248
-36 -320 -50 -14 -3 -43 -7 -65 -11 -22 -3 -47 -7 -55 -9 -8 -3 -33 -7 -55
-11 -22 -3 -116 -21 -210 -40 -93 -19 -181 -37 -195 -40 -14 -3 -43 -10 -65
-16 -22 -5 -51 -12 -65 -14 -56 -10 -424 -105 -555 -144 -38 -12 -78 -23 -88
-25 -43 -10 -296 -92 -477 -155 -323 -113 -616 -232 -885 -360 -71 -34 -139
-66 -150 -71 -11 -5 -27 -13 -35 -19 -17 -11 -588 -290 -594 -290 -11 0 -26
62 -28 115 -4 121 -84 379 -189 613 -10 23 -28 63 -40 90 -44 98 -219 442
-238 466 -4 6 -22 36 -38 67 -45 82 -144 238 -216 337 -96 133 -219 292 -227
292 -4 0 1 -30 11 -67 32 -116 57 -217 62 -248 3 -16 10 -59 16 -95 22 -141
32 -232 46 -420 3 -41 7 -100 10 -130 2 -30 7 -93 11 -140 3 -47 8 -89 11 -95
4 -7 3 -7 -4 0 -6 6 -26 62 -46 125 -19 63 -49 159 -66 213 -17 53 -44 139
-60 190 -31 94 -94 276 -110 312 -5 11 -19 47 -32 80 -42 112 -137 330 -175
400 -70 133 -236 376 -339 496 -16 19 -52 62 -80 94 -106 126 -327 351 -481
491 -48 44 -92 84 -98 89 -17 16 -136 115 -185 155 -24 19 -48 40 -55 45 -27
25 -210 158 -306 223 -58 40 -109 75 -115 80 -28 22 -255 153 -362 208 -139
73 -220 107 -234 98 -5 -3 10 -31 34 -62 76 -102 119 -174 216 -362 52 -102
94 -186 93 -187 -1 -2 8 -24 19 -50 116 -267 248 -680 274 -854 12 -81 17
-236 8 -242 -22 -14 -72 54 -233 313 -46 74 -86 137 -89 140 -4 3 -24 32 -46
65 -22 33 -47 69 -56 80 -9 11 -54 66 -99 123 -134 168 -299 338 -459 472 -30
25 -59 50 -65 55 -6 6 -38 30 -71 55 -33 25 -62 47 -65 50 -6 6 -207 140 -235
157 -171 102 -335 187 -465 243 -41 17 -88 37 -105 45 -96 42 -393 143 -440
150 -11 2 -38 7 -60 13 -39 10 -135 26 -225 37 -209 25 -1084 26 -1218 0 -9
-1 -39 -6 -67 -9 -27 -4 -57 -9 -65 -11 -8 -2 -31 -7 -50 -10 -19 -3 -53 -11
-75 -16 -22 -6 -47 -13 -55 -15 -260 -60 -627 -190 -870 -307 -47 -22 -87 -41
-90 -41 -3 -1 -54 -28 -115 -60 -245 -131 -483 -286 -700 -455 -60 -47 -112
-88 -115 -91 -3 -3 -34 -30 -70 -60 -36 -30 -85 -73 -110 -95 -76 -67 -412
-406 -475 -479 -33 -38 -64 -74 -70 -80 -25 -27 -122 -146 -145 -176 -14 -18
-30 -38 -35 -44 -6 -6 -28 -36 -50 -66 -22 -30 -42 -57 -46 -60 -6 -5 -177
-253 -194 -282 -5 -9 -45 -76 -89 -148 -109 -184 -223 -407 -309 -610 -6 -14
-11 -27 -12 -30 -1 -3 -7 -18 -14 -35 -70 -163 -206 -572 -227 -679 -2 -10 -8
-33 -13 -50 -18 -57 -60 -260 -66 -319 -4 -32 -8 -67 -10 -77 -27 -139 -27
-1208 0 -1348 1 -10 6 -39 9 -67 12 -89 35 -191 71 -309 191 -629 572 -1191
1076 -1586 35 -27 69 -54 75 -59 10 -8 80 -55 113 -76 9 -6 43 -27 75 -49 291
-188 711 -349 1017 -390 50 -7 117 -17 139 -21 8 -1 53 -6 100 -10 47 -4 101
-8 120 -10 19 -2 96 -6 170 -10 74 -4 146 -9 160 -10 14 -2 49 -4 78 -4 56 -1
65 -9 29 -27 -12 -6 -106 -54 -208 -106 -156 -80 -345 -157 -425 -172 -10 -2
-46 -11 -79 -19 -33 -9 -78 -18 -100 -21 -22 -4 -51 -8 -65 -11 -164 -32 -553
-38 -710 -11 -40 7 -124 20 -135 21 -72 7 -275 71 -451 141 -151 60 -214 76
-214 55 0 -70 286 -602 473 -880 48 -71 170 -235 191 -257 6 -6 29 -32 51 -59
104 -127 539 -568 684 -695 41 -36 79 -70 85 -75 82 -76 322 -265 335 -265 5
0 11 -4 13 -8 6 -16 318 -212 337 -212 5 0 11 -3 13 -7 9 -21 416 -221 603
-297 77 -32 149 -61 160 -66 47 -21 301 -101 435 -138 207 -56 472 -110 635
-128 28 -3 64 -7 80 -9 165 -24 670 -24 805 -1 14 3 59 7 101 11 42 3 87 8
100 10 13 2 45 6 71 9 26 3 76 10 110 15 35 6 81 13 103 16 22 3 51 8 65 11
14 2 36 6 50 9 14 3 51 10 83 16 32 5 66 13 75 16 34 11 -190 -186 -272 -241
-78 -51 -138 -89 -166 -104 -94 -52 -406 -203 -420 -203 -3 0 -25 -9 -49 -20
-158 -70 -541 -185 -744 -224 -237 -45 -350 -48 -572 -16 -33 5 -62 7 -65 4
-12 -11 233 -209 355 -288 328 -212 814 -437 1280 -593 151 -50 357 -114 415
-128 8 -2 44 -11 80 -19 36 -9 72 -18 80 -20 8 -2 26 -6 40 -9 28 -6 28 -6
230 -41 80 -14 163 -28 185 -31 22 -2 51 -7 65 -9 14 -2 63 -9 110 -15 47 -6
96 -13 110 -15 14 -2 50 -7 80 -11 30 -3 66 -7 80 -9 14 -2 54 -6 90 -10 36
-4 76 -8 90 -10 14 -2 57 -7 95 -10 39 -3 87 -8 107 -10 126 -15 398 -25 432
-17 17 5 18 13 12 121 -3 64 -8 132 -10 151 -3 19 -7 60 -11 91 -3 31 -7 65
-9 75 -2 11 -7 60 -11 109 -4 50 -9 104 -10 120 -17 192 -24 330 -24 526 l-1
157 -161 203 c-89 112 -171 216 -183 230 -11 14 -32 40 -46 58 -14 19 -56 72
-94 120 -533 667 -1130 1483 -1366 1866 -14 22 -34 54 -45 72 -41 65 -163 269
-185 308 -12 22 -30 54 -40 70 -86 147 -292 558 -388 775 -141 320 -259 632
-360 950 -30 93 -108 366 -117 408 -3 12 -7 31 -10 42 -3 11 -7 29 -10 41 -2
11 -6 28 -9 37 -3 9 -7 28 -10 42 -2 14 -12 58 -20 97 -9 40 -18 87 -21 105
-3 18 -8 40 -10 48 -3 8 -7 32 -9 52 -3 21 -10 63 -15 95 -6 32 -13 76 -15 98
-10 88 -18 151 -22 180 -9 60 -12 482 -4 555 47 441 194 790 436 1034 214 216
462 319 754 311 140 -3 216 -21 315 -75 338 -182 698 -729 992 -1505 35 -93
73 -197 84 -230 11 -33 23 -67 26 -75 3 -8 7 -19 9 -25 1 -5 21 -68 44 -140
77 -244 212 -739 244 -898 6 -29 47 -218 51 -237 19 -81 69 -343 101 -525 14
-82 27 -161 30 -175 2 -14 7 -41 10 -60 3 -19 7 -46 10 -60 2 -14 6 -43 9 -65
3 -22 7 -51 10 -65 7 -34 11 -58 40 -265 14 -99 27 -193 29 -210 13 -88 28
-204 31 -230 2 -16 6 -61 10 -100 3 -38 8 -77 10 -85 2 -8 7 -49 10 -90 4 -41
8 -92 11 -114 2 -21 6 -70 9 -110 3 -39 7 -91 10 -116 4 -42 8 -99 20 -280 13
-211 15 -238 30 -625 7 -173 15 -446 20 -685 9 -393 25 -800 40 -1010 2 -30 7
-95 10 -145 3 -49 8 -108 10 -130 2 -22 7 -70 9 -106 3 -37 8 -82 11 -100 2
-19 7 -59 10 -89 3 -30 7 -66 9 -80 3 -14 7 -50 11 -80 3 -30 12 -93 20 -140
7 -47 16 -102 20 -124 3 -21 7 -41 9 -45 2 -3 7 -28 10 -55 4 -27 9 -52 11
-55 1 -3 6 -22 9 -41 14 -89 93 -382 146 -540 54 -160 88 -250 181 -475 52
-128 307 -628 392 -770 77 -128 225 -361 246 -387 6 -7 45 -60 87 -118 238
-326 441 -557 829 -945 257 -258 409 -397 615 -565 30 -25 57 -47 60 -50 13
-13 166 -134 270 -212 63 -48 120 -91 125 -96 6 -4 26 -19 45 -32 19 -14 37
-28 40 -31 19 -22 458 -319 655 -444 202 -128 601 -363 675 -398 8 -4 60 -32
115 -62 211 -116 542 -280 829 -409 121 -55 396 -170 541 -226 673 -261 1199
-409 1650 -465 208 -26 592 -25 765 0 239 36 266 41 420 77 155 36 482 128
550 155 8 3 20 7 25 8 9 3 168 58 300 105 190 68 497 189 509 201 6 5 16 9 23
9 13 0 29 7 176 74 44 20 80 36 83 36 11 0 590 278 624 299 8 5 44 25 80 43
36 18 116 61 179 95 63 35 115 63 116 63 1 0 47 25 101 56 55 31 119 68 144
82 25 14 116 68 203 121 87 53 166 101 175 106 27 15 206 128 217 137 6 4 81
55 168 113 166 110 219 147 227 155 3 3 18 14 33 23 16 10 36 24 45 32 9 7 80
61 157 118 155 116 311 245 455 372 24 22 50 45 56 50 6 6 55 51 109 100 54
50 112 103 129 118 174 160 591 588 736 756 30 35 60 69 65 75 10 11 122 142
154 181 98 119 290 389 373 526 24 38 56 91 72 117 78 126 194 342 285 527
351 714 582 1449 617 1965 2 30 6 87 9 125 9 116 15 219 20 322 2 54 7 139 10
188 7 123 18 388 30 710 7 202 17 466 20 540 9 213 16 377 20 435 2 36 6 121
10 190 3 69 8 150 10 180 2 30 6 100 10 155 3 55 8 123 10 150 3 28 7 91 10
140 4 50 8 113 11 140 2 28 6 79 9 115 3 36 7 81 10 100 2 19 7 69 11 110 8
92 13 138 29 280 2 19 7 60 10 90 3 30 8 66 10 80 3 14 7 48 10 75 5 52 12
105 21 165 3 19 7 50 9 68 10 80 16 121 25 177 9 57 31 198 46 295 3 25 8 54
10 65 3 11 7 36 10 55 4 31 29 169 40 225 2 10 6 37 10 59 3 22 7 43 9 46 2 3
6 25 10 50 4 25 8 47 10 50 2 3 6 21 9 42 18 113 126 567 193 808 19 69 36
132 38 140 8 32 79 261 115 370 141 426 336 868 495 1120 95 152 197 291 271
370 23 25 51 54 61 65 55 60 263 215 290 215 4 0 20 6 34 14 101 52 334 66
489 28 190 -46 387 -159 533 -304 121 -121 126 -128 255 -333 6 -11 16 -30 22
-43 5 -12 19 -42 30 -67 68 -149 121 -385 136 -610 11 -154 5 -462 -10 -555
-3 -14 -7 -50 -10 -80 -6 -50 -44 -294 -51 -330 -2 -8 -13 -58 -24 -111 -43
-206 -120 -484 -191 -694 -23 -66 -46 -136 -51 -155 -6 -19 -17 -49 -25 -67
-8 -17 -14 -34 -14 -37 0 -7 -123 -323 -144 -370 -8 -17 -35 -78 -59 -136 -70
-163 -99 -225 -248 -525 -197 -398 -309 -605 -473 -870 -99 -161 -405 -616
-426 -635 -3 -3 -28 -36 -55 -75 -27 -38 -54 -75 -60 -81 -5 -6 -17 -22 -25
-34 -36 -53 -468 -629 -480 -640 -3 -3 -17 -21 -30 -40 -14 -19 -30 -42 -37
-50 -7 -8 -75 -96 -151 -195 -75 -99 -160 -209 -188 -245 -127 -164 -158 -205
-217 -282 -34 -45 -81 -106 -104 -137 -24 -31 -43 -65 -44 -76 -1 -11 -2 -33
-4 -50 -2 -16 -6 -79 -9 -140 -4 -60 -8 -130 -10 -155 -3 -25 -7 -88 -11 -140
-4 -52 -8 -111 -10 -130 -2 -19 -6 -69 -10 -110 -3 -41 -8 -88 -9 -105 -2 -16
-7 -61 -11 -100 -4 -38 -16 -122 -26 -185 -36 -221 -35 -223 122 -220 63 1
146 3 184 5 276 16 317 18 430 30 28 3 75 7 105 10 132 13 228 25 395 50 96
15 297 52 408 76 678 147 1283 380 1839 710 346 205 479 289 457 290 -13 0
-33 2 -44 4 -11 2 -55 7 -97 10 -42 3 -98 7 -125 10 -26 3 -75 7 -108 11 -92
9 -113 12 -205 29 -47 9 -94 17 -105 19 -174 31 -604 158 -750 220 -16 7 -77
33 -135 56 -264 109 -551 270 -666 375 -6 6 -41 35 -78 65 -36 29 -66 55 -66
58 0 4 60 -3 102 -12 12 -3 39 -8 58 -10 19 -3 58 -10 85 -15 28 -5 70 -12 95
-16 25 -3 70 -10 100 -15 30 -5 80 -11 110 -15 30 -3 66 -7 80 -9 160 -27 666
-40 850 -22 36 3 96 8 135 12 38 3 76 7 85 9 8 1 44 6 80 11 36 4 67 8 70 9 3
1 25 5 50 9 189 31 520 112 665 161 28 10 55 19 60 20 6 1 17 5 25 8 8 3 67
24 130 47 63 23 133 51 154 61 22 11 43 19 47 19 22 0 461 216 511 251 14 11
29 19 32 19 28 0 531 335 622 415 7 6 26 21 44 35 18 14 37 30 44 35 6 6 36
30 66 55 204 166 495 457 660 660 25 30 48 57 51 60 22 18 220 291 304 420
218 331 405 690 405 775 0 14 -4 25 -9 25 -5 0 -51 -16 -103 -36 -256 -99
-518 -171 -689 -189 -30 -4 -60 -8 -66 -10 -24 -8 -238 -19 -363 -19 -256 1
-439 31 -670 112 -93 33 -540 249 -565 273 -5 5 10 9 40 10 28 1 73 2 100 4
28 1 115 6 195 10 80 4 165 8 190 10 85 6 225 17 255 20 17 2 57 6 90 10 33 3
67 8 75 10 8 3 33 7 55 11 200 29 455 124 695 257 30 16 64 35 75 41 11 6 22
14 25 17 3 3 16 12 30 19 88 46 328 220 453 329 78 67 239 234 337 347 51 59
149 193 222 304 74 112 87 134 168 285 64 119 150 324 201 475 82 249 107 368
135 644 25 249 25 926 0 1053 -3 12 -7 53 -11 90 -3 37 -8 75 -10 83 -2 8 -7
29 -10 45 -2 17 -7 39 -9 50 -76 348 -167 630 -317 985 -47 110 -247 498 -323
625 -336 559 -766 1063 -1251 1465 -49 41 -92 77 -95 80 -22 22 -268 200 -374
270 -214 141 -314 200 -516 301 -204 101 -305 143 -511 215 -115 40 -390 116
-464 128 -16 3 -55 10 -85 16 -30 6 -66 13 -80 16 -14 2 -34 6 -45 9 -11 2
-46 7 -78 10 -32 4 -67 8 -79 10 -11 3 -53 7 -92 10 -39 3 -80 8 -91 10 -39 8
-510 25 -518 19z m-7372 -8798 c55 -4 102 -9 105 -11 3 -2 32 -6 65 -9 33 -4
96 -16 140 -27 44 -11 87 -22 95 -24 31 -7 153 -56 203 -82 82 -41 264 -160
297 -193 3 -3 37 -32 75 -65 188 -160 410 -420 583 -684 34 -52 62 -95 62 -97
0 -2 15 -27 34 -56 41 -65 78 -132 147 -268 49 -95 71 -141 139 -295 106 -237
198 -546 224 -750 33 -257 40 -362 40 -600 0 -332 -20 -503 -85 -728 -34 -116
-84 -262 -118 -342 -87 -205 -275 -544 -373 -670 -5 -5 -29 -37 -53 -70 -180
-238 -377 -441 -600 -618 -55 -43 -109 -86 -120 -95 -25 -21 -205 -140 -260
-173 -295 -177 -704 -336 -985 -382 -14 -3 -45 -8 -70 -12 -25 -4 -52 -9 -61
-10 -142 -27 -528 -27 -751 0 -18 2 -62 6 -98 10 -36 3 -103 15 -150 26 -47
11 -93 22 -102 24 -14 3 -11 -12 19 -93 36 -101 70 -209 78 -252 2 -14 7 -42
10 -64 4 -21 9 -48 11 -60 2 -11 7 -46 10 -76 3 -30 8 -68 10 -85 18 -143 25
-553 11 -719 -4 -49 -14 -121 -23 -160 -8 -39 -17 -82 -20 -96 -16 -75 -85
-267 -144 -395 -29 -64 -131 -244 -152 -270 -4 -5 -32 -41 -60 -80 -228 -306
-526 -532 -923 -698 -132 -55 -390 -131 -530 -156 -33 -6 -69 -13 -80 -15 -58
-10 -96 -16 -150 -22 -33 -3 -68 -8 -78 -10 -10 -1 -70 -6 -135 -10 -247 -16
-646 -5 -807 21 -16 2 -48 7 -70 11 -22 3 -71 12 -110 21 -38 8 -83 17 -99 20
-17 3 -102 29 -190 58 -267 88 -536 213 -720 337 -50 34 -93 64 -96 67 -3 3
-27 24 -55 46 -66 52 -197 184 -263 264 -128 155 -261 393 -330 591 -34 98
-88 312 -97 385 -4 28 -8 57 -10 65 -24 90 -24 497 -1 680 14 103 17 127 21
140 2 8 6 31 9 50 8 55 33 170 55 251 25 94 49 221 44 235 -5 15 -54 10 -253
-26 -91 -16 -203 -33 -250 -38 -80 -9 -420 -7 -485 2 -16 3 -55 8 -85 11 -30
4 -61 8 -70 10 -8 1 -35 6 -60 10 -145 22 -535 131 -569 159 -8 6 -15 9 -15 6
-2 -5 -25 4 -141 54 -335 143 -574 315 -926 666 -388 388 -534 590 -699 970
-97 223 -213 605 -236 775 -3 28 -8 53 -10 56 -24 41 -25 579 0 704 2 11 7 47
11 80 3 33 11 83 16 110 6 28 12 61 14 75 34 233 192 733 315 995 86 184 196
393 232 440 5 6 29 42 55 80 43 65 190 264 202 275 4 3 31 34 61 70 101 119
124 144 256 275 152 152 265 244 370 301 106 58 287 113 424 130 30 3 58 8 62
10 37 22 609 21 713 -1 11 -3 40 -6 65 -9 73 -7 248 -35 350 -57 590 -125
1104 -336 1550 -637 81 -55 254 -184 270 -202 3 -3 39 -34 80 -70 137 -118
312 -302 405 -425 21 -28 41 -52 44 -55 3 -3 11 -12 16 -21 6 -9 37 -56 71
-105 111 -161 235 -395 293 -554 8 -19 19 -48 26 -65 23 -51 76 -235 96 -330
28 -129 28 -131 35 -230 3 -49 8 -112 10 -140 4 -67 4 -555 -1 -630 -2 -33 -6
-112 -10 -175 -3 -63 -8 -126 -10 -140 -2 -14 -6 -52 -10 -85 -8 -84 -15 -135
-21 -167 -3 -15 -7 -39 -9 -55 -13 -101 -112 -524 -176 -753 -76 -270 -179
-597 -269 -851 -23 -63 -43 -121 -45 -129 -2 -8 -51 -141 -110 -295 -59 -154
-111 -293 -117 -310 -5 -16 -14 -39 -18 -50 -5 -11 -41 -99 -79 -196 -159
-401 -216 -482 -382 -543 -35 -13 -82 -31 -104 -41 -22 -10 -42 -19 -45 -20
-42 -13 -162 -105 -230 -176 -110 -115 -153 -210 -154 -344 -1 -136 26 -261
87 -400 89 -201 200 -342 384 -485 43 -33 83 -65 90 -70 7 -6 15 -10 17 -10 3
0 30 -15 59 -34 156 -100 439 -204 657 -242 25 -4 47 -8 50 -9 18 -4 93 -15
135 -20 28 -3 66 -7 85 -10 175 -21 666 -22 777 -1 11 3 44 7 74 11 30 3 79
10 109 15 30 5 69 12 86 15 82 13 324 83 394 112 102 44 211 98 260 130 247
162 483 418 599 650 81 163 106 250 106 374 0 91 -2 99 -38 171 -63 124 -220
267 -363 329 -48 21 -158 55 -261 80 -61 15 -59 11 -157 289 -13 36 -35 94
-49 130 -14 36 -57 153 -97 260 -39 107 -75 204 -80 215 -8 18 -49 133 -140
390 -40 113 -183 545 -210 635 -12 41 -35 116 -50 165 -38 123 -107 366 -115
405 -2 8 -13 53 -25 100 -12 47 -24 96 -26 110 -3 14 -10 43 -16 65 -5 22 -12
49 -14 60 -2 11 -6 30 -9 43 -3 12 -7 34 -10 50 -3 15 -12 59 -19 97 -13 61
-18 93 -31 190 -3 19 -10 76 -20 160 -33 275 -39 885 -11 1130 2 11 6 49 10
85 36 313 184 705 388 1034 314 505 809 933 1428 1238 243 120 487 217 687
273 46 13 86 26 90 28 8 5 212 52 267 61 16 3 52 10 80 15 59 12 104 18 178
27 29 3 64 7 77 9 14 3 79 7 145 11 67 3 122 7 123 8 5 4 239 -2 328 -8z"/>
<path d="M13299 23996 c-2 -2 -34 -7 -71 -10 -138 -14 -263 -41 -393 -86 -209
-72 -356 -145 -509 -255 -234 -167 -471 -420 -610 -649 -49 -81 -156 -289
-156 -304 0 -4 -9 -26 -19 -48 -50 -105 -128 -402 -147 -559 -3 -33 -9 -69
-11 -80 -2 -11 -6 -94 -8 -185 -3 -172 11 -339 40 -470 9 -41 18 -84 20 -96 3
-11 16 -56 30 -99 81 -256 219 -521 373 -715 24 -30 57 -73 75 -95 57 -73 230
-244 325 -322 209 -172 442 -311 683 -406 104 -41 259 -91 320 -102 13 -3 44
-9 69 -15 116 -27 262 -39 440 -35 102 1 201 5 220 9 267 45 426 92 628 187
349 163 668 435 880 751 42 62 152 254 152 264 0 2 11 27 24 56 82 181 147
404 170 583 7 59 19 233 19 285 0 175 -38 450 -88 640 -14 52 -27 102 -30 110
-37 141 -150 397 -242 550 -160 265 -387 511 -618 671 -27 19 -52 37 -55 40
-12 14 -205 122 -293 164 -98 46 -244 104 -313 125 -140 41 -231 61 -389 86
-43 7 -510 15 -516 10z m1387 -1112 c92 -22 213 -109 290 -209 89 -116 113
-258 66 -381 -49 -129 -205 -288 -329 -334 -182 -68 -459 48 -543 227 -57 122
-75 317 -36 396 25 50 172 198 239 241 45 29 83 44 172 71 15 4 107 -3 141
-11z"/>
<path d="M20189 23996 c-2 -2 -44 -7 -94 -10 -49 -4 -97 -9 -105 -11 -8 -2
-33 -6 -55 -10 -70 -10 -88 -14 -160 -35 -38 -12 -77 -23 -85 -25 -35 -8 -202
-76 -285 -115 -213 -102 -419 -247 -591 -417 -135 -133 -157 -159 -245 -281
-38 -53 -73 -102 -79 -109 -5 -7 -10 -15 -10 -19 0 -3 -8 -18 -19 -32 -31 -45
-116 -212 -158 -312 -93 -219 -154 -452 -188 -713 -23 -177 -23 -533 0 -677 2
-14 9 -55 15 -91 76 -488 346 -919 804 -1286 51 -41 221 -146 302 -187 217
-109 493 -187 714 -202 65 -5 320 -5 355 0 17 2 57 6 90 10 33 4 78 11 100 16
22 5 56 12 75 15 19 3 76 17 125 31 325 91 619 244 899 468 93 75 312 284 382
366 175 206 295 395 388 614 36 86 83 220 92 263 1 7 9 40 18 75 8 35 18 78
21 96 18 108 24 155 30 217 6 62 6 339 0 380 -2 17 -6 48 -9 70 -22 186 -85
427 -153 585 -52 120 -152 310 -179 341 -8 8 -14 19 -14 23 0 6 -38 64 -50 76
-3 3 -25 32 -50 65 -68 91 -67 91 -190 215 -63 64 -135 131 -160 150 -25 19
-51 40 -58 47 -33 32 -218 148 -315 197 -101 52 -264 119 -332 137 -16 4 -57
15 -90 24 -126 34 -249 47 -491 51 -133 2 -243 2 -245 0z m-769 -1111 c147
-25 259 -128 338 -310 85 -197 59 -293 -136 -497 -90 -93 -135 -112 -277 -112
-129 0 -200 18 -282 70 -140 90 -214 224 -208 381 8 215 177 418 391 466 62
14 103 15 174 2z"/>
<path d="M30055 22598 c-16 -6 -124 -48 -240 -93 -184 -73 -264 -101 -455
-160 -60 -18 -343 -92 -428 -111 -108 -25 -294 -63 -329 -68 -18 -2 -36 -7
-40 -9 -4 -3 -35 -8 -68 -12 -32 -3 -62 -8 -65 -10 -3 -1 -27 -6 -55 -9 -145
-19 -226 -36 -220 -47 3 -5 30 -16 59 -24 77 -23 81 -23 236 -40 205 -23 940
-23 1155 0 110 12 144 15 195 20 60 6 115 11 200 21 32 3 51 2 45 -3 -5 -5
-48 -43 -95 -84 -47 -40 -103 -90 -125 -110 -22 -20 -56 -50 -75 -65 -19 -16
-40 -33 -46 -39 -22 -20 -202 -157 -304 -230 -58 -41 -110 -79 -115 -83 -6 -5
-15 -11 -20 -13 -6 -2 -70 -43 -143 -91 -387 -256 -947 -552 -1254 -664 -182
-67 -356 -124 -533 -174 -104 -29 -408 -105 -460 -114 -17 -3 -75 -14 -130
-25 -88 -17 -168 -31 -270 -47 -16 -2 -41 -7 -55 -9 -14 -3 -50 -7 -81 -10
-31 -3 -65 -7 -76 -9 -11 -3 -56 -8 -99 -12 -43 -3 -92 -8 -109 -10 -112 -12
-327 -18 -627 -19 l-347 0 -39 -115 c-21 -63 -66 -198 -99 -300 -34 -102 -67
-198 -74 -215 -7 -16 -13 -32 -14 -35 -12 -37 -104 -262 -138 -340 -53 -121
-216 -442 -296 -581 -79 -140 -256 -426 -271 -439 -4 -4 -75 -107 -120 -174
-27 -41 -206 -279 -263 -350 -74 -92 -146 -178 -192 -230 -5 -6 -37 -43 -70
-81 -161 -188 -425 -461 -610 -630 -53 -49 -103 -95 -110 -102 -12 -11 -70
-62 -249 -217 -67 -58 -446 -369 -495 -406 -18 -14 -38 -30 -44 -36 -7 -6
-100 -76 -207 -157 -107 -81 -199 -151 -205 -155 -5 -4 -56 -38 -112 -75 -57
-38 -104 -72 -104 -77 -1 -6 -2 -16 -3 -22 -4 -28 39 -118 138 -287 197 -338
307 -543 500 -936 147 -298 203 -416 266 -560 9 -22 27 -60 38 -85 12 -25 48
-110 82 -190 33 -80 65 -154 70 -165 74 -165 367 -1022 395 -1159 3 -10 11
-42 19 -70 20 -68 77 -286 82 -311 2 -11 11 -49 20 -84 9 -36 17 -72 19 -80 2
-9 12 -56 24 -106 11 -49 22 -106 26 -125 5 -34 9 -55 20 -110 12 -55 74 -429
81 -480 4 -30 8 -62 9 -70 1 -8 5 -42 9 -75 4 -33 9 -71 12 -85 2 -14 6 -56 9
-95 4 -38 8 -83 10 -100 3 -27 6 -58 20 -229 11 -126 19 -381 19 -591 0 -208
-10 -572 -18 -635 -2 -14 -7 -68 -10 -120 -4 -52 -9 -108 -11 -125 -2 -16 -7
-57 -10 -90 -3 -33 -10 -94 -15 -135 -5 -41 -12 -95 -15 -120 -3 -25 -7 -56
-10 -70 -2 -14 -7 -43 -10 -65 -3 -22 -7 -51 -10 -65 -2 -14 -6 -41 -9 -60 -3
-19 -15 -84 -26 -144 -12 -60 -23 -121 -25 -135 -4 -36 -53 -257 -67 -306 -6
-22 -12 -49 -14 -60 -9 -61 -157 -596 -170 -617 -3 -4 -7 -16 -9 -25 -5 -28
-118 -366 -160 -478 -20 -55 -50 -135 -65 -177 -16 -42 -36 -94 -45 -115 -9
-21 -21 -47 -25 -58 -100 -254 -324 -733 -419 -894 -17 -29 -31 -54 -31 -57 0
-20 -336 -576 -352 -582 -4 -2 -8 -8 -8 -12 0 -9 -59 -101 -70 -110 -4 -3 -9
-12 -13 -20 -4 -8 -36 -55 -72 -105 -36 -49 -73 -101 -82 -115 -23 -33 -125
-172 -136 -185 -4 -5 -25 -32 -45 -60 -66 -89 -298 -377 -347 -431 -5 -6 -30
-35 -55 -64 -52 -61 -57 -67 -130 -150 -30 -35 -75 -86 -100 -113 -25 -27 -52
-58 -61 -68 -23 -27 -196 -214 -244 -264 -61 -64 -485 -504 -530 -550 -63 -65
-174 -185 -240 -260 -33 -37 -65 -73 -71 -79 -5 -6 -46 -56 -90 -112 -146
-183 -200 -293 -200 -404 1 -57 3 -65 21 -68 21 -2 30 6 197 160 316 293 621
460 739 404 70 -33 141 -124 152 -196 8 -45 -43 -121 -185 -280 -228 -255
-437 -438 -575 -502 -119 -56 -199 -34 -321 90 -40 41 -75 72 -77 70 -6 -6 31
-129 63 -209 165 -413 583 -681 1147 -736 156 -15 492 -9 665 12 82 11 265 36
290 41 14 3 63 12 110 20 252 45 640 163 885 269 202 87 277 121 435 199 764
375 1493 853 2160 1415 164 139 175 149 229 198 25 23 57 51 71 63 57 48 283
264 409 391 186 185 266 270 476 503 58 65 141 162 215 251 45 55 89 109 98
120 10 11 33 40 52 65 19 25 41 51 48 59 15 15 186 240 212 277 8 12 63 89
121 171 102 143 213 305 234 341 5 9 19 31 31 47 35 51 237 384 304 500 137
241 260 476 389 748 34 70 61 130 61 132 0 2 11 28 24 57 42 91 108 243 110
253 1 6 9 26 18 45 8 19 38 98 67 175 30 77 57 149 62 160 4 11 22 63 40 115
17 52 35 104 39 115 68 162 261 899 305 1165 3 19 12 67 20 105 14 71 32 181
39 245 3 19 9 67 15 105 17 116 26 203 36 330 4 44 8 91 10 104 25 158 25
1109 0 1262 -2 13 -6 65 -10 115 -3 49 -7 101 -9 115 -3 13 -7 56 -10 94 -4
39 -8 81 -11 95 -2 14 -6 48 -10 75 -11 87 -14 109 -21 160 -4 28 -8 59 -9 70
-6 44 -38 235 -49 291 -2 12 -7 37 -10 55 -5 35 -63 317 -72 354 -3 11 -7 29
-9 40 -17 77 -36 159 -50 215 -9 36 -18 72 -20 80 -30 141 -192 678 -282 935
-106 303 -268 712 -370 935 -14 30 -38 82 -53 115 -15 33 -37 83 -50 110 -29
64 -206 419 -252 505 -19 36 -63 119 -98 185 -35 66 -81 151 -101 189 l-37 69
86 106 c48 58 89 108 92 111 3 3 23 28 45 55 22 28 45 55 51 60 11 10 62 72
225 276 118 147 143 179 153 198 6 9 20 27 33 41 13 14 23 28 23 32 0 3 6 13
13 20 7 7 24 29 37 48 13 19 28 40 33 45 10 12 97 134 114 161 7 11 44 65 83
121 38 56 70 106 70 112 0 5 4 11 8 13 7 3 162 245 162 253 0 2 12 23 28 47
38 60 46 73 94 158 23 41 50 87 58 101 8 14 36 63 61 110 116 211 169 313 169
325 0 7 4 15 8 18 5 3 25 38 44 78 53 107 188 390 188 393 0 2 20 46 45 99 25
53 45 99 45 101 0 2 11 28 24 57 53 114 254 614 270 673 2 6 6 17 9 25 119
304 326 1038 413 1465 2 11 13 65 24 120 11 55 23 111 26 125 5 26 11 61 18
108 2 15 7 38 10 52 6 27 15 72 20 105 2 11 9 56 16 100 12 78 15 94 25 145 2
14 7 49 10 79 3 30 7 57 9 60 2 3 7 31 10 62 4 31 8 65 10 75 2 11 7 44 11 74
3 30 8 66 10 80 2 14 9 68 15 120 6 52 13 111 16 130 3 19 7 58 9 85 5 52 14
133 20 175 2 14 6 57 10 95 4 39 8 87 10 108 19 180 28 303 30 402 2 93 -5
136 -23 134 -4 0 -20 -5 -37 -11z m-9044 -21048 c79 -22 130 -110 135 -234 2
-53 -1 -90 -11 -114 -15 -33 -131 -202 -173 -250 -11 -13 -35 -41 -54 -64 -18
-23 -38 -46 -43 -52 -6 -6 -20 -23 -32 -38 -87 -114 -466 -502 -523 -537 -99
-60 -275 11 -330 131 -32 72 -22 197 24 282 28 52 112 166 176 240 197 225
479 511 571 578 85 62 175 82 260 58z m837 -292 c150 -92 143 -276 -21 -518
-28 -41 -53 -77 -56 -80 -3 -3 -24 -27 -45 -55 -63 -81 -246 -258 -311 -302
-120 -80 -205 -95 -291 -52 -91 45 -131 144 -104 261 63 279 479 734 705 770
41 7 88 -2 123 -24z"/>
<path d="M9275 18604 c-60 -75 -114 -142 -120 -148 -5 -6 -37 -45 -70 -86 -65
-82 -80 -101 -109 -133 -10 -12 -30 -38 -45 -57 -14 -19 -28 -37 -31 -40 -4
-3 -33 -39 -65 -80 -33 -41 -62 -77 -65 -80 -3 -3 -44 -54 -90 -115 -47 -60
-89 -115 -95 -122 -18 -22 -30 -37 -60 -78 -17 -22 -32 -42 -35 -45 -15 -14
-382 -517 -450 -616 -8 -12 -55 -80 -105 -150 -80 -115 -308 -457 -393 -589
-18 -27 -37 -57 -42 -65 -46 -68 -280 -453 -280 -459 0 -5 -4 -11 -8 -13 -4
-1 -19 -23 -33 -48 -29 -51 -215 -377 -229 -400 -5 -8 -65 -118 -133 -245
-597 -1102 -1026 -2159 -1296 -3195 -36 -140 -101 -424 -116 -508 -3 -18 -12
-63 -19 -100 -8 -37 -17 -87 -21 -112 -3 -25 -8 -52 -10 -60 -2 -8 -7 -33 -10
-55 -3 -23 -7 -50 -9 -60 -4 -24 -16 -100 -21 -135 -2 -14 -6 -43 -9 -65 -5
-37 -8 -62 -21 -162 -2 -21 -7 -63 -10 -93 -3 -30 -8 -77 -12 -105 -3 -27 -7
-66 -8 -85 -3 -46 -17 -225 -20 -270 -22 -256 -22 -880 0 -1171 11 -143 21
-257 31 -351 3 -29 7 -69 9 -88 2 -19 6 -48 9 -65 3 -16 7 -50 10 -75 3 -25 8
-62 11 -83 7 -56 44 -265 56 -317 5 -25 11 -54 13 -65 17 -84 39 -187 48 -220
5 -22 12 -47 13 -56 2 -9 18 -72 35 -140 17 -68 33 -132 35 -141 10 -48 131
-442 175 -573 71 -210 168 -471 215 -580 7 -16 38 -88 68 -160 123 -290 303
-654 485 -980 131 -235 366 -607 563 -890 70 -101 401 -537 433 -571 6 -7 27
-31 46 -55 103 -127 295 -347 445 -509 109 -117 470 -475 579 -575 141 -128
148 -135 207 -187 94 -81 103 -89 148 -126 24 -21 53 -46 65 -56 11 -10 89
-73 171 -138 83 -66 159 -128 170 -137 11 -9 54 -41 95 -71 91 -67 88 -64 125
-93 138 -106 547 -381 770 -517 66 -40 132 -81 147 -91 15 -11 29 -19 32 -19
2 0 40 -21 83 -46 233 -138 616 -334 838 -429 61 -26 124 -53 142 -61 328
-148 945 -321 1246 -349 34 -4 68 -8 76 -11 54 -17 532 -25 681 -11 303 30
559 108 740 226 169 111 298 263 397 468 55 114 54 112 58 175 4 63 -13 63
-85 -2 -78 -71 -163 -114 -225 -114 -41 -1 -61 6 -113 37 -34 21 -68 44 -75
51 -6 6 -22 19 -34 27 -71 49 -353 319 -433 414 -105 125 -153 210 -145 257
12 69 99 168 183 209 53 26 98 22 171 -15 85 -44 290 -183 367 -251 7 -5 31
-26 55 -45 77 -62 186 -169 215 -213 16 -23 34 -47 39 -54 6 -6 23 -28 39 -48
27 -34 30 -35 37 -18 22 60 -11 214 -71 332 -28 57 -128 201 -176 256 -14 17
-45 52 -68 79 -87 102 -202 222 -496 517 -389 390 -612 622 -811 844 -25 28
-56 61 -68 75 -143 157 -442 554 -647 860 -587 874 -1006 1781 -1303 2820 -24
85 -81 302 -96 370 -12 50 -85 389 -89 410 -2 14 -13 75 -24 135 -28 151 -49
280 -67 410 -14 105 -18 134 -30 235 -2 25 -7 65 -10 90 -3 25 -7 62 -10 84
-2 21 -7 75 -10 120 -4 44 -8 97 -10 116 -14 144 -20 342 -20 630 0 291 10
617 20 668 1 10 6 57 10 107 3 49 8 105 11 125 2 19 6 58 9 85 4 28 8 66 10
85 3 19 7 58 10 85 3 28 7 61 10 75 2 14 7 50 11 80 4 30 8 64 9 75 3 21 33
200 41 245 7 38 34 192 39 220 3 14 14 70 26 125 26 124 25 120 39 180 7 28
14 59 15 70 5 33 104 421 142 555 133 472 368 1147 503 1445 10 22 43 99 73
170 103 242 261 574 397 830 49 93 77 146 145 270 51 93 187 328 221 381 19
29 34 55 34 58 0 3 14 27 30 53 l30 47 -57 38 c-32 21 -76 50 -98 64 -88 58
-301 199 -310 207 -5 4 -35 25 -65 47 -30 22 -63 45 -72 52 -9 7 -26 20 -38
28 -105 73 -486 375 -580 460 -15 14 -56 50 -91 80 -127 110 -178 159 -424
405 -242 241 -290 291 -420 440 -33 37 -64 73 -70 79 -66 73 -253 307 -349
436 -43 58 -83 112 -90 120 -16 21 -166 242 -196 290 -90 144 -283 450 -284
450 -1 0 -50 -61 -111 -136z m3778 -17062 c112 -50 380 -297 632 -583 125
-142 209 -283 223 -374 10 -65 0 -151 -23 -199 -41 -86 -137 -147 -236 -151
-51 -2 -66 2 -102 26 -38 25 -272 257 -357 354 -19 22 -66 76 -105 120 -38 44
-72 82 -76 85 -3 3 -32 39 -64 80 -33 41 -62 77 -66 80 -16 15 -68 101 -83
140 -52 132 -44 317 16 381 66 69 147 83 241 41z m-775 -286 c177 -90 436
-378 576 -641 64 -120 48 -230 -49 -327 -68 -68 -149 -91 -212 -62 -21 10 -40
21 -43 24 -3 3 -19 15 -36 25 -85 54 -321 281 -426 411 -112 138 -150 218
-153 327 -5 132 54 236 153 268 43 14 138 2 190 -25z"/>
</g>
</svg>
